<?xml version="1.0" encoding="UTF-8" standalone="no"?>
<!DOCTYPE svg PUBLIC "-//W3C//DTD SVG 1.1//EN" "http://www.w3.org/Graphics/SVG/1.1/DTD/svg11.dtd">
<svg width="100%" height="100%" viewBox="0 0 680 267" version="1.1" xmlns="http://www.w3.org/2000/svg" xmlns:xlink="http://www.w3.org/1999/xlink" xml:space="preserve" xmlns:serif="http://www.serif.com/" style="fill-rule:evenodd;clip-rule:evenodd;stroke-linecap:round;stroke-linejoin:round;stroke-miterlimit:1.5;">
    <g transform="matrix(1,0,0,1,-1332.350813,-2010.120309)">
        <g transform="matrix(0.243447,0,0,0.243447,1260.340756,1986.922752)">
            <g transform="matrix(1,0,0,1,-86.404807,-62.573833)">
                <path d="M1398.808,923.364L1356.024,1014.637L1291.886,1000.206L1218.128,1065.947L1237.37,1136.498L1144.37,1197.428L1086.647,1149.325L1001.665,1171.773L976.01,1242.324L870.183,1242.324L844.528,1181.394L753.132,1147.722L700.219,1195.825L602.409,1138.101L618.444,1064.343L555.91,996.999L483.755,1016.24L430.842,916.827L477.341,860.707L462.91,785.345L390.756,759.69L393.963,649.053L462.91,623.398L483.755,549.64L438.859,493.52L488.565,405.331L554.306,414.952L578.623,392.51C566.524,438.642 570.603,489.823 570.887,576.174C553.412,619.407 547.572,657.393 547.572,706.857C547.572,913.274 715.156,1080.859 921.573,1080.859C1010.491,1080.859 1092.204,1049.761 1156.419,997.858C1248.906,984.113 1331.969,955.534 1398.808,923.364ZM607.249,316.326L599.202,273.849L698.615,224.143L702.981,226.667C655.99,260.251 626.617,285.109 607.249,316.326ZM721.271,242.066L749.925,265.832L841.321,236.97L855.752,169.626L971.199,166.419L990.441,233.764L1091.457,265.832L1139.56,212.919L1230.956,269.039L1218.128,329.97L1282.266,395.711L1360.834,382.883L1420.161,495.124L1390.35,525.763C1345.557,492.119 1287.532,469.762 1199.499,456.693C1131.022,380.677 1031.838,332.856 921.573,332.856C777.97,332.856 660.048,403.359 597.386,522.226C597.183,427.62 597.141,384.525 625.174,336.883C644.016,304.861 672.692,276.354 721.271,242.066ZM1366.048,551.427L1362.438,554.451C1362.438,554.451 1429.782,671.501 1359.231,860.707L1385.327,891.476C1324.736,921.316 1272.537,941.098 1188.691,956.25C1260.376,888.094 1295.574,813.481 1295.574,706.857C1295.574,619.508 1261.564,553.112 1211.301,489.427C1284.83,502.09 1326.363,522.176 1366.048,551.427ZM609.17,626.765C640.247,480.34 767.459,380.5 923.087,380.5C1101.849,380.5 1246.981,525.632 1246.981,704.394C1246.981,747.296 1241.984,783.217 1226.807,820.703C1190.837,860.314 1139.72,813.196 1129.609,803.429L983.324,664.646C1024.431,650.769 1058.498,650.93 1088.831,653.738C1128.774,693.817 1180.649,745.246 1180.649,745.246C1182.887,731.638 1184.05,717.669 1184.05,703.431C1184.05,562.015 1069.238,447.203 927.821,447.203C851.23,447.203 785.885,474.683 738.915,528.026C675.18,555.496 635.229,589.594 609.17,626.765ZM955.822,644.164C915.229,616.204 883.856,652.084 871.012,667.737C857.001,684.813 841.044,726.433 892.749,762.954C964.208,813.428 1000.028,744.091 1000.028,744.091L1045.999,800.271C999.251,883.576 908.529,863.474 867.438,841.664C783.915,797.333 741.921,701.097 805.798,619.074C904.554,492.264 1033.732,599.784 1046.414,610.451C1050.171,613.61 1051.264,615.225 1062.486,626.333C1031.344,624.914 994.756,629.167 955.822,644.164ZM706.807,573.414C680.281,613.766 671.592,651.576 671.592,703.431C671.592,812.398 728.224,902.297 824.203,939.319C851.557,971.78 892.098,1010.356 949.714,1029.41C937.418,1030.829 935.76,1028.287 923.087,1028.287C744.325,1028.287 604.186,894.863 604.186,716.101C604.186,707.021 602.839,693.035 603.573,684.143C624.151,645.924 656.964,614.118 706.807,573.414ZM885.541,954.653C905.003,959.388 906.911,959.66 927.821,959.66C1010.271,959.66 1083.677,920.634 1130.559,860.061C1156.724,877.774 1177.517,883.148 1193.481,882.669C1148.687,950.435 1089.439,996.45 1008.038,1015.675C949.651,1003.076 915.681,983.364 885.541,954.653Z" style="fill:rgb(0,86,179);stroke:rgb(0,86,179);stroke-width:17.12px;"/>
            </g>
            <g transform="matrix(1,0,0,1,-1387.968688,-245.525147)">
                <path d="M2782.388,957.136L2782.388,712.136L2829.168,712.136L2933.501,885.178L2908.782,885.178L3011.162,712.136L3057.948,712.136L3058.434,957.136L3005.36,957.136L3004.873,793.856L3014.87,793.856L2932.877,931.072L2907.459,931.072L2823.716,793.856L2835.462,793.856L2835.462,957.136L2782.388,957.136Z" style="fill:rgb(0,86,179);fill-rule:nonzero;stroke:rgb(0,86,179);stroke-width:4.11px;stroke-linecap:butt;stroke-miterlimit:2;"/>
                <path d="M3116.638,957.136L3116.638,712.136L3301.635,712.136L3301.635,757.751L3172.917,757.751L3172.917,911.521L3306.398,911.521L3306.398,957.136L3116.638,957.136ZM3168.794,854.821L3168.794,810.738L3286.864,810.738L3286.864,854.821L3168.794,854.821Z" style="fill:rgb(0,86,179);fill-rule:nonzero;stroke:rgb(0,86,179);stroke-width:4.11px;stroke-linecap:butt;stroke-miterlimit:2;"/>
                <path d="M3468.891,961.26C3449.856,961.26 3432.243,958.168 3416.052,951.985C3399.861,945.801 3385.816,937.028 3373.916,925.664C3362.019,914.299 3352.759,900.907 3346.134,885.485C3339.51,870.063 3336.198,853.113 3336.198,834.636C3336.198,816.159 3339.51,799.21 3346.134,783.788C3352.759,768.366 3362.056,754.973 3374.025,743.609C3385.994,732.245 3400.073,723.471 3416.26,717.288C3432.451,711.104 3450.066,708.013 3469.105,708.013C3490.323,708.013 3509.539,711.686 3526.751,719.032C3543.963,726.375 3558.353,737.136 3569.921,751.314L3533.614,784.98C3525.254,775.457 3515.924,768.258 3505.625,763.384C3495.325,758.506 3484.06,756.067 3471.828,756.067C3460.377,756.067 3449.884,757.961 3440.35,761.749C3430.816,765.533 3422.555,770.918 3415.566,777.903C3408.58,784.889 3403.159,793.194 3399.302,802.819C3395.444,812.444 3393.516,823.05 3393.516,834.636C3393.516,846.223 3395.444,856.828 3399.302,866.453C3403.159,876.078 3408.58,884.384 3415.566,891.369C3422.555,898.354 3430.816,903.741 3440.35,907.529C3449.884,911.314 3460.377,913.206 3471.828,913.206C3484.06,913.206 3495.325,910.768 3505.625,905.894C3515.924,901.016 3525.254,893.744 3533.614,884.079L3569.921,917.75C3558.353,931.834 3543.963,942.608 3526.751,950.071C3509.539,957.53 3490.252,961.26 3468.891,961.26Z" style="fill:rgb(0,86,179);fill-rule:nonzero;stroke:rgb(0,86,179);stroke-width:4.11px;stroke-linecap:butt;stroke-miterlimit:2;"/>
                <path d="M3567.684,957.136L3676.895,712.136L3732.966,712.136L3842.385,957.136L3783.175,957.136L3693.302,740.989L3715.789,740.989L3625.916,957.136L3567.684,957.136ZM3672.514,904.724L3690.389,861.696L3763.608,861.696L3778.691,904.724L3672.514,904.724Z" style="fill:rgb(0,86,179);fill-rule:nonzero;stroke:rgb(0,86,179);stroke-width:4.11px;stroke-linecap:butt;stroke-miterlimit:2;"/>
                <rect x="3849.079" y="836.796" width="99.083" height="43.663" style="fill:rgb(0,86,179);fill-rule:nonzero;stroke:rgb(0,86,179);stroke-width:4.11px;stroke-linecap:butt;stroke-miterlimit:2;"/>
                <path d="M4113.941,961.26C4094.906,961.26 4077.293,958.168 4061.102,951.985C4044.911,945.801 4030.866,937.028 4018.966,925.664C4007.069,914.299 3997.809,900.907 3991.184,885.485C3984.56,870.063 3981.248,853.113 3981.248,834.636C3981.248,816.159 3984.56,799.21 3991.184,783.788C3997.809,768.366 4007.106,754.973 4019.075,743.609C4031.044,732.245 4045.123,723.471 4061.31,717.288C4077.501,711.104 4095.116,708.013 4114.155,708.013C4135.373,708.013 4154.589,711.686 4171.801,719.032C4189.013,726.375 4203.403,737.136 4214.971,751.314L4178.664,784.98C4170.304,775.457 4160.974,768.258 4150.675,763.384C4140.375,758.506 4129.11,756.067 4116.878,756.067C4105.427,756.067 4094.934,757.961 4085.4,761.749C4075.866,765.533 4067.605,770.918 4060.616,777.903C4053.63,784.889 4048.209,793.194 4044.352,802.819C4040.494,812.444 4038.566,823.05 4038.566,834.636C4038.566,846.223 4040.494,856.828 4044.352,866.453C4048.209,876.078 4053.63,884.384 4060.616,891.369C4067.605,898.354 4075.866,903.741 4085.4,907.529C4094.934,911.314 4105.427,913.206 4116.878,913.206C4129.11,913.206 4140.375,910.768 4150.675,905.894C4160.974,901.016 4170.304,893.744 4178.664,884.079L4214.971,917.75C4203.403,931.834 4189.013,942.608 4171.801,950.071C4154.589,957.53 4135.302,961.26 4113.941,961.26Z" style="fill:rgb(0,86,179);fill-rule:nonzero;stroke:rgb(0,86,179);stroke-width:4.11px;stroke-linecap:butt;stroke-miterlimit:2;"/>
                <path d="M4249.938,957.136L4249.938,712.136L4296.718,712.136L4441.377,888.689C4441.377,888.689 4419.707,896.171 4418.748,888.689C4414.976,859.264 4418.748,712.136 4418.748,712.136L4474.753,712.136L4474.753,957.136L4427.973,957.136L4283.309,780.583L4305.938,780.583L4305.938,957.136L4249.938,957.136Z" style="fill:rgb(0,86,179);fill-rule:nonzero;stroke:rgb(0,86,179);stroke-width:4.11px;stroke-linecap:butt;stroke-miterlimit:2;"/>
            </g>
            <g transform="matrix(1.00562,0,0,1.00562,-1223.44226,-180.110834)">
                <path d="M2642.331,1105.583C2629.633,1105.583 2619.671,1101.96 2612.444,1094.712C2605.218,1087.465 2601.605,1076.864 2601.605,1062.909L2601.605,1008.225L2615.271,1008.225L2615.271,1062.423C2615.271,1073.09 2617.634,1080.908 2622.361,1085.878C2627.088,1090.848 2633.783,1093.333 2642.447,1093.333C2651.111,1093.333 2657.806,1090.848 2662.533,1085.878C2667.259,1080.908 2669.622,1073.09 2669.622,1062.423L2669.622,1008.225L2683.054,1008.225L2683.054,1062.909C2683.054,1076.864 2679.441,1087.465 2672.216,1094.712C2664.99,1101.96 2655.028,1105.583 2642.331,1105.583Z" style="fill:rgb(0,86,179);fill-rule:nonzero;stroke:rgb(0,86,179);stroke-width:4.08px;stroke-linecap:butt;stroke-miterlimit:2;"/>
                <path d="M2739.234,1105.583C2731.88,1105.583 2724.858,1104.456 2718.166,1102.2C2711.476,1099.942 2706.217,1097.036 2702.39,1093.481L2707.45,1082.752C2711.095,1085.94 2715.763,1088.598 2721.453,1090.725C2727.144,1092.85 2733.064,1093.913 2739.212,1093.913C2744.785,1093.913 2749.311,1093.261 2752.788,1091.956C2756.267,1090.65 2758.833,1088.873 2760.484,1086.626C2762.136,1084.378 2762.961,1081.864 2762.961,1079.082C2762.961,1075.738 2761.9,1073.055 2759.777,1071.034C2757.655,1069.012 2754.876,1067.393 2751.441,1066.177C2748.007,1064.959 2744.213,1063.882 2740.059,1062.943C2735.905,1062.005 2731.748,1060.928 2727.587,1059.712C2723.426,1058.496 2719.629,1056.917 2716.194,1054.975C2712.761,1053.031 2709.983,1050.443 2707.86,1047.21C2705.738,1043.978 2704.676,1039.802 2704.676,1034.683C2704.676,1029.693 2705.993,1025.113 2708.625,1020.944C2711.258,1016.773 2715.302,1013.426 2720.757,1010.902C2726.214,1008.378 2733.166,1007.116 2741.612,1007.116C2747.21,1007.116 2752.758,1007.86 2758.256,1009.348C2763.756,1010.837 2768.519,1012.949 2772.543,1015.684L2768.012,1026.592C2763.853,1023.905 2759.474,1021.933 2754.877,1020.675C2750.279,1019.416 2745.826,1018.787 2741.518,1018.787C2736.142,1018.787 2731.719,1019.482 2728.247,1020.873C2724.776,1022.262 2722.238,1024.1 2720.633,1026.388C2719.027,1028.674 2718.224,1031.253 2718.224,1034.124C2718.224,1037.483 2719.286,1040.174 2721.408,1042.196C2723.531,1044.217 2726.31,1045.817 2729.744,1046.996C2733.179,1048.173 2736.977,1049.25 2741.137,1050.227C2745.298,1051.204 2749.455,1052.284 2753.609,1053.469C2757.763,1054.653 2761.556,1056.198 2764.989,1058.103C2768.424,1060.007 2771.203,1062.567 2773.325,1065.786C2775.448,1069.004 2776.509,1073.127 2776.509,1078.154C2776.509,1083.067 2775.17,1087.609 2772.492,1091.78C2769.813,1095.949 2765.716,1099.292 2760.198,1101.809C2754.683,1104.325 2747.694,1105.583 2739.234,1105.583Z" style="fill:rgb(0,86,179);fill-rule:nonzero;stroke:rgb(0,86,179);stroke-width:4.08px;stroke-linecap:butt;stroke-miterlimit:2;"/>
                <rect x="2796.58" y="1008.225" width="13.666" height="96.25" style="fill:rgb(0,86,179);fill-rule:nonzero;stroke:rgb(0,86,179);stroke-width:4.08px;stroke-linecap:butt;stroke-miterlimit:2;"/>
                <path d="M2839.205,1104.475L2839.205,1008.225L2850.484,1008.225L2914.059,1087.262L2908.249,1087.262L2908.249,1008.225L2921.913,1008.225L2921.913,1104.475L2910.636,1104.475L2847.062,1025.438L2852.871,1025.438L2852.871,1104.475L2839.205,1104.475Z" style="fill:rgb(0,86,179);fill-rule:nonzero;stroke:rgb(0,86,179);stroke-width:4.08px;stroke-linecap:butt;stroke-miterlimit:2;"/>
                <path d="M2936.243,1104.475L2979.887,1008.225L2993.437,1008.225L3037.194,1104.475L3022.767,1104.475L2983.825,1015.882L2989.381,1015.882L2950.438,1104.475L2936.243,1104.475ZM2971.694,1080.455L2976.502,1069.367L3012.726,1069.367L3016.655,1080.455L2971.694,1080.455Z" style="fill:rgb(0,86,179);fill-rule:nonzero;stroke:rgb(0,86,179);stroke-width:4.08px;stroke-linecap:butt;stroke-miterlimit:2;"/>
                <path d="M3093.563,1105.583C3086.181,1105.583 3079.368,1104.369 3073.125,1101.94C3066.881,1099.511 3061.455,1096.077 3056.846,1091.638C3052.238,1087.199 3048.658,1081.989 3046.106,1076.006C3043.554,1070.023 3042.277,1063.471 3042.277,1056.35C3042.277,1049.229 3043.554,1042.676 3046.106,1036.694C3048.658,1030.711 3052.258,1025.5 3056.904,1021.062C3061.552,1016.623 3066.997,1013.189 3073.241,1010.76C3079.484,1008.331 3086.335,1007.116 3093.795,1007.116C3101.465,1007.116 3108.454,1008.357 3114.764,1010.837C3121.074,1013.318 3126.447,1017.008 3130.881,1021.908L3122.264,1030.569C3118.328,1026.661 3114.053,1023.818 3109.44,1022.037C3104.828,1020.257 3099.806,1019.367 3094.375,1019.367C3088.845,1019.367 3083.737,1020.284 3079.052,1022.119C3074.369,1023.952 3070.302,1026.529 3066.851,1029.849C3063.402,1033.168 3060.741,1037.078 3058.868,1041.579C3056.996,1046.08 3056.06,1051.003 3056.06,1056.35C3056.06,1061.619 3056.996,1066.505 3058.868,1071.007C3060.741,1075.507 3063.402,1079.436 3066.851,1082.795C3070.302,1086.152 3074.349,1088.748 3078.994,1090.583C3083.641,1092.416 3088.729,1093.333 3094.259,1093.333C3099.381,1093.333 3104.294,1092.533 3108.997,1090.933C3113.702,1089.332 3118.086,1086.655 3122.148,1082.902L3129.951,1093.324C3125.207,1097.372 3119.641,1100.427 3113.253,1102.49C3106.867,1104.552 3100.303,1105.583 3093.563,1105.583ZM3129.951,1093.324L3116.772,1091.541L3116.772,1055.802L3129.951,1055.802L3129.951,1093.324Z" style="fill:rgb(0,86,179);fill-rule:nonzero;stroke:rgb(0,86,179);stroke-width:4.08px;stroke-linecap:butt;stroke-miterlimit:2;"/>
                <path d="M3156.28,1104.475L3156.28,1008.225L3224.216,1008.225L3224.216,1020.127L3169.946,1020.127L3169.946,1092.573L3226.162,1092.573L3226.162,1104.475L3156.28,1104.475ZM3168.795,1061.429L3168.795,1049.758L3218.26,1049.758L3218.26,1061.429L3168.795,1061.429Z" style="fill:rgb(0,86,179);fill-rule:nonzero;stroke:rgb(0,86,179);stroke-width:4.08px;stroke-linecap:butt;stroke-miterlimit:2;"/>
                <path d="M3285.392,1104.475L3285.392,1008.225L3325.895,1008.225C3336.225,1008.225 3345.29,1010.252 3353.092,1014.307C3360.894,1018.362 3366.98,1023.991 3371.351,1031.194C3375.724,1038.397 3377.911,1046.782 3377.911,1056.35C3377.911,1065.918 3375.724,1074.303 3371.351,1081.506C3366.98,1088.709 3360.894,1094.338 3353.092,1098.393C3345.29,1102.447 3336.225,1104.475 3325.895,1104.475L3285.392,1104.475ZM3299.059,1092.573L3325.156,1092.573C3333.106,1092.573 3339.986,1091.047 3345.796,1087.996C3351.605,1084.944 3356.113,1080.7 3359.318,1075.265C3362.525,1069.829 3364.128,1063.524 3364.128,1056.35C3364.128,1049.098 3362.525,1042.774 3359.318,1037.377C3356.113,1031.98 3351.605,1027.756 3345.796,1024.706C3339.986,1021.653 3333.106,1020.127 3325.156,1020.127L3299.059,1020.127L3299.059,1092.573Z" style="fill:rgb(0,86,179);fill-rule:nonzero;stroke:rgb(0,86,179);stroke-width:4.08px;stroke-linecap:butt;stroke-miterlimit:2;"/>
                <path d="M3398.967,1104.475L3398.967,1008.225L3466.903,1008.225L3466.903,1020.127L3412.634,1020.127L3412.634,1092.573L3468.85,1092.573L3468.85,1104.475L3398.967,1104.475ZM3411.482,1061.429L3411.482,1049.758L3460.948,1049.758L3460.948,1061.429L3411.482,1061.429Z" style="fill:rgb(0,86,179);fill-rule:nonzero;stroke:rgb(0,86,179);stroke-width:4.08px;stroke-linecap:butt;stroke-miterlimit:2;"/>
                <path d="M3528.08,1104.475L3528.08,1008.225L3565.66,1008.225C3574.009,1008.225 3581.176,1009.563 3587.162,1012.238C3593.148,1014.914 3597.75,1018.764 3600.968,1023.788C3604.186,1028.811 3605.795,1034.823 3605.795,1041.824C3605.795,1048.734 3604.186,1054.703 3600.968,1059.734C3597.75,1064.764 3593.148,1068.617 3587.162,1071.294C3581.176,1073.97 3574.009,1075.308 3565.66,1075.308L3535.632,1075.308L3541.746,1068.843L3541.746,1104.475L3528.08,1104.475ZM3541.746,1070.194L3535.632,1063.405L3565.239,1063.405C3574.038,1063.405 3580.7,1061.52 3585.226,1057.748C3589.752,1053.976 3592.015,1048.668 3592.015,1041.824C3592.015,1034.888 3589.752,1029.537 3585.226,1025.773C3580.7,1022.009 3574.038,1020.127 3565.239,1020.127L3535.632,1020.127L3541.746,1013.338L3541.746,1070.194Z" style="fill:rgb(0,86,179);fill-rule:nonzero;stroke:rgb(0,86,179);stroke-width:4.08px;stroke-linecap:butt;stroke-miterlimit:2;"/>
                <path d="M3625.98,1104.475L3625.98,1008.225L3663.56,1008.225C3676.006,1008.225 3685.806,1011.191 3692.962,1017.124C3700.118,1023.056 3703.695,1031.29 3703.695,1041.824C3703.695,1048.734 3702.086,1054.684 3698.868,1059.676C3695.65,1064.667 3691.048,1068.501 3685.062,1071.178C3679.076,1073.854 3671.909,1075.192 3663.56,1075.192L3633.532,1075.192L3639.646,1068.843L3639.646,1104.475L3625.98,1104.475ZM3690.371,1104.475L3665.788,1069.55L3680.606,1069.55L3705.305,1104.475L3690.371,1104.475ZM3639.646,1070.194L3633.532,1063.521L3663.139,1063.521C3671.938,1063.521 3678.6,1061.616 3683.126,1057.807C3687.652,1053.995 3689.915,1048.668 3689.915,1041.824C3689.915,1034.888 3687.652,1029.537 3683.126,1025.773C3678.6,1022.009 3671.938,1020.127 3663.139,1020.127L3633.532,1020.127L3639.646,1013.338L3639.646,1070.194Z" style="fill:rgb(0,86,179);fill-rule:nonzero;stroke:rgb(0,86,179);stroke-width:4.08px;stroke-linecap:butt;stroke-miterlimit:2;"/>
                <path d="M3725.942,1104.475L3725.942,1008.225L3793.878,1008.225L3793.878,1020.127L3739.609,1020.127L3739.609,1092.573L3795.825,1092.573L3795.825,1104.475L3725.942,1104.475ZM3738.457,1061.429L3738.457,1049.758L3787.923,1049.758L3787.923,1061.429L3738.457,1061.429ZM3749.519,1000.387L3768.305,982.476L3785.07,982.476L3762.006,1000.387L3749.519,1000.387Z" style="fill:rgb(0,86,179);fill-rule:nonzero;stroke:rgb(0,86,179);stroke-width:4.08px;stroke-linecap:butt;stroke-miterlimit:2;"/>
                <path d="M3860.95,1105.583C3853.66,1105.583 3846.916,1104.369 3840.718,1101.94C3834.521,1099.511 3829.141,1096.077 3824.577,1091.638C3820.015,1087.199 3816.458,1081.989 3813.906,1076.006C3811.354,1070.023 3810.077,1063.471 3810.077,1056.35C3810.077,1049.229 3811.354,1042.676 3813.906,1036.694C3816.458,1030.711 3820.035,1025.5 3824.635,1021.062C3829.237,1016.623 3834.637,1013.189 3840.834,1010.76C3847.032,1008.331 3853.776,1007.116 3861.066,1007.116C3868.476,1007.116 3875.331,1008.376 3881.633,1010.895C3887.937,1013.415 3893.267,1017.163 3897.624,1022.14L3888.775,1030.801C3885.071,1026.893 3880.935,1024.011 3876.367,1022.153C3871.801,1020.295 3866.894,1019.367 3861.646,1019.367C3856.208,1019.367 3851.189,1020.284 3846.588,1022.119C3841.989,1023.952 3837.987,1026.529 3834.583,1029.849C3831.179,1033.168 3828.541,1037.078 3826.668,1041.579C3824.796,1046.08 3823.86,1051.003 3823.86,1056.35C3823.86,1061.697 3824.796,1066.621 3826.668,1071.123C3828.541,1075.623 3831.179,1079.533 3834.583,1082.853C3837.987,1086.172 3841.989,1088.748 3846.588,1090.583C3851.189,1092.416 3856.208,1093.333 3861.646,1093.333C3866.894,1093.333 3871.801,1092.401 3876.367,1090.536C3880.935,1088.671 3885.071,1085.746 3888.775,1081.762L3897.624,1090.422C3893.267,1095.399 3887.937,1099.17 3881.633,1101.736C3875.331,1104.301 3868.437,1105.583 3860.95,1105.583Z" style="fill:rgb(0,86,179);fill-rule:nonzero;stroke:rgb(0,86,179);stroke-width:4.08px;stroke-linecap:butt;stroke-miterlimit:2;"/>
                <rect x="3915.967" y="1008.225" width="13.666" height="96.25" style="fill:rgb(0,86,179);fill-rule:nonzero;stroke:rgb(0,86,179);stroke-width:4.08px;stroke-linecap:butt;stroke-miterlimit:2;"/>
                <path d="M3986.634,1105.583C3979.28,1105.583 3972.258,1104.456 3965.566,1102.2C3958.876,1099.942 3953.617,1097.036 3949.79,1093.481L3954.85,1082.752C3958.495,1085.94 3963.163,1088.598 3968.853,1090.725C3974.544,1092.85 3980.464,1093.913 3986.612,1093.913C3992.185,1093.913 3996.711,1093.261 4000.188,1091.956C4003.667,1090.65 4006.233,1088.873 4007.884,1086.626C4009.536,1084.378 4010.361,1081.864 4010.361,1079.082C4010.361,1075.738 4009.3,1073.055 4007.177,1071.034C4005.055,1069.012 4002.276,1067.393 3998.841,1066.177C3995.407,1064.959 3991.613,1063.882 3987.459,1062.943C3983.305,1062.005 3979.148,1060.928 3974.987,1059.712C3970.826,1058.496 3967.029,1056.917 3963.594,1054.975C3960.161,1053.031 3957.383,1050.443 3955.26,1047.21C3953.138,1043.978 3952.076,1039.802 3952.076,1034.683C3952.076,1029.693 3953.393,1025.113 3956.025,1020.944C3958.658,1016.773 3962.702,1013.426 3968.157,1010.902C3973.614,1008.378 3980.566,1007.116 3989.012,1007.116C3994.61,1007.116 4000.158,1007.86 4005.656,1009.348C4011.156,1010.837 4015.919,1012.949 4019.943,1015.684L4015.412,1026.592C4011.253,1023.905 4006.874,1021.933 4002.277,1020.675C3997.679,1019.416 3993.226,1018.787 3988.918,1018.787C3983.542,1018.787 3979.119,1019.482 3975.647,1020.873C3972.176,1022.262 3969.638,1024.1 3968.033,1026.388C3966.427,1028.674 3965.624,1031.253 3965.624,1034.124C3965.624,1037.483 3966.686,1040.174 3968.808,1042.196C3970.931,1044.217 3973.71,1045.817 3977.144,1046.996C3980.579,1048.173 3984.377,1049.25 3988.537,1050.227C3992.698,1051.204 3996.855,1052.284 4001.009,1053.469C4005.163,1054.653 4008.956,1056.198 4012.389,1058.103C4015.824,1060.007 4018.603,1062.567 4020.725,1065.786C4022.848,1069.004 4023.909,1073.127 4023.909,1078.154C4023.909,1083.067 4022.57,1087.609 4019.892,1091.78C4017.213,1095.949 4013.116,1099.292 4007.598,1101.809C4002.083,1104.325 3995.094,1105.583 3986.634,1105.583Z" style="fill:rgb(0,86,179);fill-rule:nonzero;stroke:rgb(0,86,179);stroke-width:4.08px;stroke-linecap:butt;stroke-miterlimit:2;"/>
                <rect x="4043.98" y="1008.225" width="13.666" height="96.25" style="fill:rgb(0,86,179);fill-rule:nonzero;stroke:rgb(0,86,179);stroke-width:4.08px;stroke-linecap:butt;stroke-miterlimit:2;"/>
                <path d="M4129.999,1105.583C4122.647,1105.583 4115.844,1104.35 4109.591,1101.882C4103.339,1099.414 4097.912,1095.961 4093.31,1091.522C4088.71,1087.083 4085.133,1081.883 4082.581,1075.92C4080.029,1069.956 4078.752,1063.433 4078.752,1056.35C4078.752,1049.267 4080.029,1042.745 4082.581,1036.782C4085.133,1030.818 4088.715,1025.611 4093.325,1021.161C4097.936,1016.71 4103.354,1013.257 4109.58,1010.801C4115.808,1008.344 4122.606,1007.116 4129.973,1007.116C4137.341,1007.116 4144.127,1008.338 4150.332,1010.782C4156.537,1013.224 4161.936,1016.657 4166.529,1021.083C4171.124,1025.508 4174.697,1030.715 4177.25,1036.707C4179.802,1042.697 4181.078,1049.248 4181.078,1056.361C4181.078,1063.475 4179.802,1070.023 4177.25,1076.006C4174.697,1081.989 4171.124,1087.193 4166.529,1091.619C4161.936,1096.043 4156.537,1099.477 4150.332,1101.92C4144.127,1104.362 4137.35,1105.583 4129.999,1105.583ZM4129.973,1093.333C4135.334,1093.333 4140.279,1092.414 4144.806,1090.577C4149.335,1088.738 4153.279,1086.145 4156.638,1082.799C4159.998,1079.452 4162.614,1075.536 4164.486,1071.052C4166.359,1066.566 4167.296,1061.654 4167.296,1056.315C4167.296,1050.977 4166.364,1046.08 4164.499,1041.624C4162.635,1037.169 4160.022,1033.266 4156.659,1029.915C4153.296,1026.565 4149.348,1023.97 4144.815,1022.13C4140.282,1020.288 4135.334,1019.367 4129.973,1019.367C4124.612,1019.367 4119.656,1020.288 4115.104,1022.132C4110.554,1023.975 4106.59,1026.575 4103.215,1029.931C4099.839,1033.285 4097.215,1037.193 4095.343,1041.655C4093.471,1046.116 4092.535,1051.002 4092.535,1056.311C4092.535,1061.621 4093.469,1066.518 4095.336,1071.004C4097.205,1075.489 4099.824,1079.418 4103.193,1082.793C4106.563,1086.166 4110.529,1088.766 4115.089,1090.594C4119.651,1092.42 4124.612,1093.333 4129.973,1093.333Z" style="fill:rgb(0,86,179);fill-rule:nonzero;stroke:rgb(0,86,179);stroke-width:4.08px;stroke-linecap:butt;stroke-miterlimit:2;"/>
                <path d="M4202.105,1104.475L4202.105,1008.225L4213.384,1008.225L4276.959,1087.262L4271.149,1087.262L4271.149,1008.225L4284.813,1008.225L4284.813,1104.475L4273.536,1104.475L4209.962,1025.438L4215.771,1025.438L4215.771,1104.475L4202.105,1104.475Z" style="fill:rgb(0,86,179);fill-rule:nonzero;stroke:rgb(0,86,179);stroke-width:4.08px;stroke-linecap:butt;stroke-miterlimit:2;"/>
            </g>
        </g>
    </g>
</svg>
