<?xml version="1.0" encoding="UTF-8" standalone="no"?>
<!DOCTYPE svg PUBLIC "-//W3C//DTD SVG 1.1//EN" "http://www.w3.org/Graphics/SVG/1.1/DTD/svg11.dtd">
<svg width="100%" height="100%" viewBox="0 0 435 454" version="1.1" xmlns="http://www.w3.org/2000/svg" xmlns:xlink="http://www.w3.org/1999/xlink" xml:space="preserve" xmlns:serif="http://www.serif.com/" style="fill-rule:evenodd;clip-rule:evenodd;stroke-linejoin:round;stroke-miterlimit:2;">
    <g transform="matrix(1,0,0,1,-113.399766,-1894.829182)">
        <g transform="matrix(0.421942,0,0,0.421942,-51.476395,1824.609932)">
            <path d="M1398.808,923.364L1356.024,1014.637L1291.886,1000.206L1218.128,1065.947L1237.37,1136.498L1144.37,1197.428L1086.647,1149.325L1001.665,1171.773L976.01,1242.324L870.183,1242.324L844.528,1181.394L753.132,1147.722L700.219,1195.825L602.409,1138.101L618.444,1064.343L555.91,996.999L483.755,1016.24L430.842,916.827L477.341,860.707L462.91,785.345L390.756,759.69L393.963,649.053L462.91,623.398L483.755,549.64L438.859,493.52L488.565,405.331L554.306,414.952L578.623,392.51C566.524,438.642 570.603,489.823 570.887,576.174C553.412,619.407 547.572,657.393 547.572,706.857C547.572,913.274 715.156,1080.859 921.573,1080.859C1010.491,1080.859 1092.204,1049.761 1156.419,997.858C1248.906,984.113 1331.969,955.534 1398.808,923.364ZM607.249,316.326L599.202,273.849L698.615,224.143L702.981,226.667C655.99,260.251 626.617,285.109 607.249,316.326ZM721.271,242.066L749.925,265.832L841.321,236.97L855.752,169.626L971.199,166.419L990.441,233.764L1091.457,265.832L1139.56,212.919L1230.956,269.039L1218.128,329.97L1282.266,395.711L1360.834,382.883L1420.161,495.124L1390.35,525.763C1345.557,492.119 1287.532,469.762 1199.499,456.693C1131.022,380.677 1031.838,332.856 921.573,332.856C777.97,332.856 660.048,403.359 597.386,522.226C597.183,427.62 597.141,384.525 625.174,336.883C644.016,304.861 672.692,276.354 721.271,242.066ZM1366.048,551.427L1362.438,554.451C1362.438,554.451 1429.782,671.501 1359.231,860.707L1385.327,891.476C1324.736,921.316 1272.537,941.098 1188.691,956.25C1260.376,888.094 1295.574,813.481 1295.574,706.857C1295.574,619.508 1261.564,553.112 1211.301,489.427C1284.83,502.09 1326.363,522.176 1366.048,551.427ZM609.17,626.765C640.247,480.34 767.459,380.5 923.087,380.5C1101.849,380.5 1246.981,525.632 1246.981,704.394C1246.981,747.296 1241.984,783.217 1226.807,820.703C1190.837,860.314 1139.72,813.196 1129.609,803.429L983.324,664.646C1024.431,650.769 1058.498,650.93 1088.831,653.738C1128.774,693.817 1180.649,745.246 1180.649,745.246C1182.887,731.638 1184.05,717.669 1184.05,703.431C1184.05,562.015 1069.238,447.203 927.821,447.203C851.23,447.203 785.885,474.683 738.915,528.026C675.18,555.496 635.229,589.594 609.17,626.765ZM955.822,644.164C915.229,616.204 883.856,652.084 871.012,667.737C857.001,684.813 841.044,726.433 892.749,762.954C964.208,813.428 1000.028,744.091 1000.028,744.091L1045.999,800.271C999.251,883.576 908.529,863.474 867.438,841.664C783.915,797.333 741.921,701.097 805.798,619.074C904.554,492.264 1033.732,599.784 1046.414,610.451C1050.171,613.61 1051.264,615.225 1062.486,626.333C1031.344,624.914 994.756,629.167 955.822,644.164ZM706.807,573.414C680.281,613.766 671.592,651.576 671.592,703.431C671.592,812.398 728.224,902.297 824.203,939.319C851.557,971.78 892.098,1010.356 949.714,1029.41C937.418,1030.829 935.76,1028.287 923.087,1028.287C744.325,1028.287 604.186,894.863 604.186,716.101C604.186,707.021 602.839,693.035 603.573,684.143C624.151,645.924 656.964,614.118 706.807,573.414ZM885.541,954.653C905.003,959.388 906.911,959.66 927.821,959.66C1010.271,959.66 1083.677,920.634 1130.559,860.061C1156.724,877.774 1177.517,883.148 1193.481,882.669C1148.687,950.435 1089.439,996.45 1008.038,1015.675C949.651,1003.076 915.681,983.364 885.541,954.653Z"/>
        </g>
    </g>
</svg>
